<?xml version="1.0" encoding="UTF-8"?>
<!-- This file is generated by npm run build:icons -->
<svg xmlns="http://www.w3.org/2000/svg" xmlns:xlink="http://www.w3.org/1999/xlink" width="0" height="0">
<defs>
<symbol viewBox="0 0 35 35" fill="none" id="brighter">
<rect width="34.6821" height="34.6821" rx="8.67052" fill="#FF5841"></rect>
<path d="M9.1471 9.80005H15.5231V12.7409H9.1471V9.80005Z" fill="white"></path>
<path d="M9.1471 9.80005H15.5231V12.7409H9.1471V9.80005Z" fill="white"></path>
<path d="M9.1471 21.5614H15.5231V24.5022H9.1471V21.5614Z" fill="white"></path>
<path d="M9.1471 21.5614H15.5231V24.5022H9.1471V21.5614Z" fill="white"></path>
<path d="M18.7866 9.80005H25.1625V12.7409H18.7866V9.80005Z" fill="white"></path>
<path d="M18.7866 9.80005H25.1625V12.7409H18.7866V9.80005Z" fill="white"></path>
<path d="M18.7866 21.5614H25.1625V24.5022H18.7866V21.5614Z" fill="white"></path>
<path d="M18.7866 21.5614H25.1625V24.5022H18.7866V21.5614Z" fill="white"></path>
<path d="M6.03198 15.6807H28.2738V18.6216H6.03198V15.6807Z" fill="white"></path>
<path d="M6.03198 15.6807H28.2738V18.6216H6.03198V15.6807Z" fill="white"></path>
<path d="M12.4093 12.7427H21.8991V21.5653H12.4093V12.7427Z" fill="white"></path>
</symbol>
<symbol viewBox="0 0 24 24" id="heart">
<path d="M12.1 18.55L12 18.65L11.89 18.55C7.14 14.24 4 11.39 4 8.5C4 6.5 5.5 5 7.5 5C9.04 5 10.54 6 11.07 7.36H12.93C13.46 6 14.96 5 16.5 5C18.5 5 20 6.5 20 8.5C20 11.39 16.86 14.24 12.1 18.55ZM16.5 3C14.76 3 13.09 3.81 12 5.08C10.91 3.81 9.24 3 7.5 3C4.42 3 2 5.41 2 8.5C2 12.27 5.4 15.36 10.55 20.03L12 21.35L13.45 20.03C18.6 15.36 22 12.27 22 8.5C22 5.41 19.58 3 16.5 3Z"></path>
</symbol>
<symbol viewBox="0 0 35 35" fill="none" id="telegram">
<g clip-path="url(#clip0_66_94)">
<path d="M17.5 35C27.165 35 35 27.165 35 17.5C35 7.83502 27.165 0 17.5 0C7.83502 0 0 7.83502 0 17.5C0 27.165 7.83502 35 17.5 35Z" fill="#2AABEE"></path>
<path fill-rule="evenodd" clip-rule="evenodd" d="M9.16866 16.4574C13.7321 14.3406 16.775 12.945 18.2976 12.2707C22.6448 10.3456 23.5481 10.0112 24.1369 10.0001C24.2664 9.99769 24.5559 10.0319 24.7435 10.1939C24.9018 10.3307 24.9454 10.5155 24.9663 10.6452C24.9871 10.775 25.0131 11.0705 24.9924 11.3014C24.7569 13.9367 23.7375 20.3322 23.2189 23.2838C22.9995 24.5328 22.5674 24.9516 22.1492 24.9926C21.2401 25.0816 20.5498 24.3529 19.6694 23.7384C18.2916 22.7769 17.5133 22.1783 16.176 21.24C14.6305 20.1556 15.6323 19.5596 16.5131 18.5856C16.7436 18.3307 20.7489 14.4519 20.8264 14.1C20.8361 14.056 20.8451 13.892 20.7536 13.8053C20.6621 13.7187 20.527 13.7483 20.4295 13.7719C20.2913 13.8053 18.0904 15.3542 13.8266 18.4185C13.2019 18.8753 12.636 19.0978 12.129 19.0862C11.5701 19.0733 10.495 18.7497 9.69573 18.4731C8.71541 18.1338 7.93627 17.9544 8.00412 17.3782C8.03946 17.0781 8.42764 16.7712 9.16866 16.4574Z" fill="white"></path>
</g>
<defs>
<clipPath id="clip0_66_94">
<rect width="35" height="35" fill="white"></rect>
</clipPath>
</defs>
</symbol>
<symbol viewBox="0 0 35 35" fill="none" id="vk">
<g clip-path="url(#clip0_66_14)">
<path d="M17.5 35C27.165 35 35 27.165 35 17.5C35 7.83502 27.165 0 17.5 0C7.83502 0 0 7.83502 0 17.5C0 27.165 7.83502 35 17.5 35Z" fill="#0077FF"></path>
<path d="M18.3485 23C11.8569 23 8.15428 18.8709 8 12H11.2517C11.3585 17.043 13.7557 19.1792 15.6545 19.6196V12H18.7165V16.3493C20.5915 16.1621 22.5613 14.1802 23.2259 12H26.2878C25.7775 14.6867 23.6413 16.6687 22.1223 17.4835C23.6413 18.1441 26.0743 19.8729 27 23H23.6295C22.9056 20.9079 21.1018 19.2893 18.7165 19.0691V23H18.3485Z" fill="white"></path>
</g>
<defs>
<clipPath id="clip0_66_14">
<rect width="35" height="35" fill="white"></rect>
</clipPath>
</defs>
</symbol>
<symbol viewBox="0 0 14 15" id="x">
<g>
<path d="M4.16957 0.926758L6.96347 6.03689L9.80243 0.926758H13.2543L9.08143 7.84842L13.3264 14.7701H9.89256L6.96347 9.78613L4.06142 14.7701H0.600586L4.81847 7.84842L0.708737 0.926758H4.16957Z"></path>
</g>
</symbol>
</defs>
</svg>
