<svg width="35" height="35" viewBox="0 0 35 35" fill="none" xmlns="http://www.w3.org/2000/svg">
<g clip-path="url(#clip0_66_20)">
<path d="M17.4394 34.8788C27.0709 34.8788 34.8788 27.0709 34.8788 17.4394C34.8788 7.80788 27.0709 0 17.4394 0C7.80788 0 0 7.80788 0 17.4394C0 27.0709 7.80788 34.8788 17.4394 34.8788Z" fill="url(#paint0_linear_66_20)"/>
<path d="M11.8049 18.7123L13.874 24.4391C13.874 24.4391 14.1327 24.9749 14.4096 24.9749C14.6866 24.9749 18.8066 20.6889 18.8066 20.6889L23.388 11.8398L11.8788 17.234L11.8049 18.7123Z" fill="#C8DAEA"/>
<path d="M14.5479 20.1816L14.1508 24.4028C14.1508 24.4028 13.9845 25.6963 15.2776 24.4028C16.5708 23.1094 17.8085 22.112 17.8085 22.112" fill="#A9C6D8"/>
<path d="M11.8422 18.9168L7.5861 17.5301C7.5861 17.5301 7.07745 17.3237 7.24123 16.8557C7.27495 16.7592 7.34296 16.6771 7.54642 16.536C8.48946 15.8787 25.0012 9.94394 25.0012 9.94394C25.0012 9.94394 25.4674 9.78684 25.7424 9.89133C25.8104 9.91239 25.8716 9.95113 25.9197 10.0036C25.9679 10.0561 26.0012 10.1204 26.0163 10.19C26.046 10.3129 26.0585 10.4393 26.0532 10.5657C26.0519 10.6749 26.0387 10.7762 26.0287 10.9351C25.9281 12.5577 22.9187 24.6676 22.9187 24.6676C22.9187 24.6676 22.7386 25.3762 22.0935 25.4005C21.9349 25.4056 21.777 25.3787 21.6291 25.3215C21.4811 25.2643 21.3462 25.1778 21.2324 25.0674C19.9665 23.9784 15.5909 21.0379 14.6241 20.3911C14.6022 20.3763 14.5839 20.3569 14.5702 20.3344C14.5565 20.3118 14.5478 20.2866 14.5447 20.2604C14.5312 20.1922 14.6053 20.1078 14.6053 20.1078C14.6053 20.1078 22.2243 13.3355 22.427 12.6245C22.4427 12.5694 22.3834 12.5423 22.3038 12.5664C21.7977 12.7526 13.0254 18.2923 12.0573 18.9037C11.9876 18.9248 11.9139 18.9293 11.8422 18.9168Z" fill="white"/>
</g>
<defs>
<linearGradient id="paint0_linear_66_20" x1="17.4394" y1="34.8788" x2="17.4394" y2="0" gradientUnits="userSpaceOnUse">
<stop stop-color="#1D93D2"/>
<stop offset="1" stop-color="#38B0E3"/>
</linearGradient>
<clipPath id="clip0_66_20">
<rect width="34.8788" height="34.8788" fill="white"/>
</clipPath>
</defs>
</svg>
