<svg width="35" height="35" viewBox="0 0 35 35" fill="none" xmlns="http://www.w3.org/2000/svg">
<rect width="34.6821" height="34.6821" rx="8.67052" fill="#FF5841"/>
<path d="M9.1471 9.80005H15.5231V12.7409H9.1471V9.80005Z" fill="white"/>
<path d="M9.1471 9.80005H15.5231V12.7409H9.1471V9.80005Z" fill="white"/>
<path d="M9.1471 21.5614H15.5231V24.5022H9.1471V21.5614Z" fill="white"/>
<path d="M9.1471 21.5614H15.5231V24.5022H9.1471V21.5614Z" fill="white"/>
<path d="M18.7866 9.80005H25.1625V12.7409H18.7866V9.80005Z" fill="white"/>
<path d="M18.7866 9.80005H25.1625V12.7409H18.7866V9.80005Z" fill="white"/>
<path d="M18.7866 21.5614H25.1625V24.5022H18.7866V21.5614Z" fill="white"/>
<path d="M18.7866 21.5614H25.1625V24.5022H18.7866V21.5614Z" fill="white"/>
<path d="M6.03198 15.6807H28.2738V18.6216H6.03198V15.6807Z" fill="white"/>
<path d="M6.03198 15.6807H28.2738V18.6216H6.03198V15.6807Z" fill="white"/>
<path d="M12.4093 12.7427H21.8991V21.5653H12.4093V12.7427Z" fill="white"/>
</svg>
