<svg width="35" height="35" viewBox="0 0 35 35" fill="none" xmlns="http://www.w3.org/2000/svg">
<g clip-path="url(#clip0_66_94)">
<path d="M17.5 35C27.165 35 35 27.165 35 17.5C35 7.83502 27.165 0 17.5 0C7.83502 0 0 7.83502 0 17.5C0 27.165 7.83502 35 17.5 35Z" fill="#2AABEE"/>
<path fill-rule="evenodd" clip-rule="evenodd" d="M9.16866 16.4574C13.7321 14.3406 16.775 12.945 18.2976 12.2707C22.6448 10.3456 23.5481 10.0112 24.1369 10.0001C24.2664 9.99769 24.5559 10.0319 24.7435 10.1939C24.9018 10.3307 24.9454 10.5155 24.9663 10.6452C24.9871 10.775 25.0131 11.0705 24.9924 11.3014C24.7569 13.9367 23.7375 20.3322 23.2189 23.2838C22.9995 24.5328 22.5674 24.9516 22.1492 24.9926C21.2401 25.0816 20.5498 24.3529 19.6694 23.7384C18.2916 22.7769 17.5133 22.1783 16.176 21.24C14.6305 20.1556 15.6323 19.5596 16.5131 18.5856C16.7436 18.3307 20.7489 14.4519 20.8264 14.1C20.8361 14.056 20.8451 13.892 20.7536 13.8053C20.6621 13.7187 20.527 13.7483 20.4295 13.7719C20.2913 13.8053 18.0904 15.3542 13.8266 18.4185C13.2019 18.8753 12.636 19.0978 12.129 19.0862C11.5701 19.0733 10.495 18.7497 9.69573 18.4731C8.71541 18.1338 7.93627 17.9544 8.00412 17.3782C8.03946 17.0781 8.42764 16.7712 9.16866 16.4574Z" fill="white"/>
</g>
<defs>
<clipPath id="clip0_66_94">
<rect width="35" height="35" fill="white"/>
</clipPath>
</defs>
</svg>
