<svg width="27" height="28" viewBox="0 0 27 28" fill="none" xmlns="http://www.w3.org/2000/svg">
<g clip-path="url(#clip0_189_2004)">
<path d="M13.6365 27.2041C20.9289 27.2041 26.8406 21.2924 26.8406 14C26.8406 6.70758 20.9289 0.795898 13.6365 0.795898C6.34405 0.795898 0.432373 6.70758 0.432373 14C0.432373 21.2924 6.34405 27.2041 13.6365 27.2041Z" fill="url(#paint0_linear_189_2004)"/>
<path d="M9.37036 14.9641L10.9369 19.3002C10.9369 19.3002 11.1328 19.7059 11.3425 19.7059C11.5522 19.7059 14.6716 16.4607 14.6716 16.4607L18.1404 9.76074L9.42626 13.8449L9.37036 14.9641Z" fill="#C8DAEA"/>
<path d="M11.4473 16.0771L11.1466 19.2732C11.1466 19.2732 11.0207 20.2525 11.9998 19.2732C12.9789 18.2939 13.9161 17.5387 13.9161 17.5387" fill="#A9C6D8"/>
<path d="M9.39856 15.1195L6.17609 14.0696C6.17609 14.0696 5.79098 13.9133 5.91498 13.559C5.94051 13.4859 5.99201 13.4238 6.14606 13.3169C6.86007 12.8192 19.3618 8.32577 19.3618 8.32577C19.3618 8.32577 19.7148 8.20683 19.923 8.28594C19.9745 8.30188 20.0208 8.33122 20.0573 8.37095C20.0937 8.41068 20.119 8.45938 20.1304 8.51206C20.1529 8.60511 20.1623 8.70085 20.1584 8.7965C20.1574 8.87925 20.1474 8.95594 20.1398 9.07621C20.0636 10.3047 17.785 19.4737 17.785 19.4737C17.785 19.4737 17.6487 20.0102 17.1603 20.0286C17.0402 20.0324 16.9206 20.0121 16.8086 19.9688C16.6966 19.9255 16.5945 19.86 16.5083 19.7764C15.5498 18.9519 12.2369 16.7255 11.5048 16.2358C11.4883 16.2245 11.4744 16.2099 11.464 16.1928C11.4537 16.1757 11.4471 16.1566 11.4448 16.1368C11.4345 16.0852 11.4906 16.0212 11.4906 16.0212C11.4906 16.0212 17.2593 10.8936 17.4128 10.3554C17.4247 10.3137 17.3798 10.2931 17.3195 10.3113C16.9363 10.4523 10.2945 14.6467 9.56141 15.1096C9.50864 15.1256 9.45287 15.129 9.39856 15.1195Z" fill="white"/>
</g>
<defs>
<linearGradient id="paint0_linear_189_2004" x1="13.6365" y1="27.2041" x2="13.6365" y2="0.795898" gradientUnits="userSpaceOnUse">
<stop stop-color="#1D93D2"/>
<stop offset="1" stop-color="#38B0E3"/>
</linearGradient>
<clipPath id="clip0_189_2004">
<rect width="26.4082" height="26.4082" fill="white" transform="translate(0.432373 0.795898)"/>
</clipPath>
</defs>
</svg>
