<svg width="35" height="35" viewBox="0 0 35 35" fill="none" xmlns="http://www.w3.org/2000/svg">
<g clip-path="url(#clip0_66_14)">
<path d="M17.5 35C27.165 35 35 27.165 35 17.5C35 7.83502 27.165 0 17.5 0C7.83502 0 0 7.83502 0 17.5C0 27.165 7.83502 35 17.5 35Z" fill="#0077FF"/>
<path d="M18.3485 23C11.8569 23 8.15428 18.8709 8 12H11.2517C11.3585 17.043 13.7557 19.1792 15.6545 19.6196V12H18.7165V16.3493C20.5915 16.1621 22.5613 14.1802 23.2259 12H26.2878C25.7775 14.6867 23.6413 16.6687 22.1223 17.4835C23.6413 18.1441 26.0743 19.8729 27 23H23.6295C22.9056 20.9079 21.1018 19.2893 18.7165 19.0691V23H18.3485Z" fill="white"/>
</g>
<defs>
<clipPath id="clip0_66_14">
<rect width="35" height="35" fill="white"/>
</clipPath>
</defs>
</svg>
